<?xml version="1.0" standalone="no"?>
<!DOCTYPE svg PUBLIC "-//W3C//DTD SVG 20010904//EN"
 "http://www.w3.org/TR/2001/REC-SVG-20010904/DTD/svg10.dtd">
<svg version="1.0" xmlns="http://www.w3.org/2000/svg"
 width="700.000000pt" height="700.000000pt" viewBox="0 0 700.000000 700.000000"
 preserveAspectRatio="xMidYMid meet">
<metadata>
Created by potrace 1.11, written by Peter Selinger 2001-2013
</metadata>
<g transform="translate(0.000000,700.000000) scale(0.100000,-0.100000)"
fill="#000000" stroke="none">
<path d="M3327 6964 c-1 -1 -49 -4 -107 -8 -152 -9 -349 -39 -520 -77 -410
-92 -855 -286 -1189 -520 -126 -87 -149 -104 -221 -163 -125 -101 -130 -106
-281 -256 -419 -418 -715 -918 -886 -1500 -14 -47 -27 -96 -29 -110 -3 -14
-11 -50 -19 -81 -15 -56 -47 -242 -62 -354 -10 -76 -10 -763 0 -830 4 -27 10
-70 13 -95 3 -25 9 -61 14 -80 5 -19 11 -53 14 -76 6 -46 46 -211 77 -318 226
-775 735 -1466 1413 -1916 434 -288 857 -453 1396 -544 41 -7 120 -17 205 -26
81 -9 673 -6 710 3 11 2 45 8 75 11 30 4 78 11 105 16 28 5 64 12 80 15 68 11
94 17 174 36 521 122 1055 396 1466 753 79 69 282 270 340 336 349 405 603
875 739 1371 33 123 79 339 91 429 3 25 8 61 10 80 27 203 27 653 0 840 -2 19
-7 55 -10 80 -3 25 -7 56 -10 70 -29 146 -37 186 -54 255 -286 1174 -1157
2113 -2306 2489 -104 35 -349 98 -425 111 -19 3 -60 10 -90 15 -177 30 -335
43 -548 44 -90 1 -164 1 -165 0z m-82 -193 c-6 -5 -28 -14 -50 -21 -66 -20
-255 -113 -335 -165 -191 -123 -385 -300 -505 -460 -33 -44 -63 -81 -67 -83
-5 -2 -8 -8 -8 -13 0 -5 -16 -34 -36 -64 -100 -158 -205 -418 -240 -595 -11
-61 -14 -77 -19 -110 -18 -120 -22 -193 -19 -335 4 -245 47 -460 134 -671 23
-54 46 -110 52 -124 9 -22 -6 -61 -112 -300 -67 -151 -133 -299 -146 -328 -13
-29 -24 -54 -24 -57 0 -2 -13 -32 -29 -67 -36 -79 -35 -76 -241 -543 -95 -214
-187 -424 -205 -465 -18 -41 -44 -100 -58 -130 -14 -30 -76 -170 -137 -310
-62 -140 -141 -320 -176 -399 -35 -79 -64 -150 -64 -158 0 -27 -20 -12 -73 55
-303 380 -524 841 -635 1327 -12 50 -23 106 -26 125 -3 19 -7 44 -10 55 -2 11
-7 45 -11 75 -4 30 -9 63 -11 73 -24 131 -24 653 0 782 2 11 7 47 11 80 3 33
10 78 15 100 5 22 11 58 14 79 22 144 121 463 201 650 172 403 394 728 714
1046 373 372 768 617 1271 791 94 33 362 104 425 113 23 4 52 9 65 11 14 3 43
8 65 11 22 3 51 7 65 10 14 2 61 7 105 10 44 4 82 8 84 10 10 9 25 4 16 -5z
m860 -316 c22 -3 69 -13 104 -21 36 -9 72 -17 80 -19 66 -13 250 -94 351 -154
83 -50 230 -163 230 -178 0 -14 -30 -80 -163 -353 -46 -96 -107 -222 -135
-280 -62 -131 -157 -328 -255 -530 -148 -307 -220 -457 -268 -558 -34 -71 -53
-101 -62 -96 -6 4 -39 33 -71 63 -33 31 -67 63 -76 71 -9 8 -65 60 -125 115
-60 55 -119 109 -131 120 -11 11 -63 59 -115 106 -52 48 -110 102 -130 120
-20 19 -85 79 -144 134 -60 55 -136 125 -169 156 -151 139 -166 149 -219 149
-104 0 -132 -36 -278 -365 -66 -147 -119 -271 -119 -276 0 -5 -4 -9 -8 -9 -14
0 -35 166 -37 288 -5 360 97 667 315 952 66 85 193 214 260 261 25 18 47 35
50 39 10 14 117 78 205 123 232 119 503 173 770 155 55 -3 118 -9 140 -13z
m1332 -317 c240 -176 509 -445 696 -697 364 -490 590 -1094 635 -1701 8 -113
8 -414 0 -520 -8 -93 -26 -246 -33 -270 -2 -8 -7 -35 -10 -60 -8 -57 -54 -261
-62 -273 -3 -5 -286 271 -629 614 -545 545 -622 625 -610 639 28 31 118 185
162 279 43 89 117 295 127 351 3 14 10 43 15 65 12 43 17 78 29 170 10 72 10
404 1 460 -4 22 -12 71 -18 109 -40 253 -181 587 -325 771 -41 52 -45 60 -51
91 -5 29 -5 29 73 -28z m-162 -635 c23 -59 57 -176 70 -237 2 -10 7 -44 11
-75 3 -31 8 -60 11 -64 5 -9 5 -281 -1 -317 -2 -14 -7 -47 -11 -75 -37 -256
-160 -527 -330 -731 -203 -241 -490 -422 -795 -499 -147 -37 -433 -52 -565
-30 -358 60 -628 195 -865 434 -73 73 -160 180 -160 195 0 10 210 489 219 498
3 4 25 -10 47 -30 48 -43 369 -337 400 -367 11 -11 72 -67 135 -125 213 -196
233 -215 260 -240 23 -22 143 -133 233 -213 58 -53 121 -66 182 -37 48 24 89
77 137 180 19 41 74 156 122 255 48 99 107 223 132 275 25 52 97 200 159 329
63 128 114 235 114 236 0 2 43 92 96 201 135 278 241 498 277 573 l30 64 33
-66 c19 -36 45 -97 59 -134z m-2566 -2052 c157 -118 328 -212 509 -277 98 -36
257 -78 333 -88 25 -4 59 -9 75 -12 67 -12 351 -19 404 -10 14 3 48 7 75 10
246 25 542 132 778 280 l108 68 70 -71 c60 -60 68 -72 52 -78 -48 -17 -93 -65
-208 -222 -11 -15 -32 -43 -47 -62 -15 -19 -68 -88 -119 -154 -51 -66 -116
-149 -143 -186 -28 -36 -153 -198 -278 -360 -125 -161 -240 -309 -255 -326
l-28 -33 -120 136 c-66 75 -131 148 -145 163 -14 15 -61 67 -105 116 -44 50
-82 92 -85 95 -3 3 -41 45 -85 95 -44 49 -97 108 -117 130 -20 22 -45 50 -56
63 -38 43 -147 167 -202 227 -30 33 -91 101 -135 150 -132 148 -144 158 -236
190 -46 17 -87 30 -92 30 -4 0 -50 -97 -102 -215 -53 -118 -102 -229 -110
-247 -8 -17 -15 -35 -15 -40 0 -5 52 -27 116 -49 l116 -39 77 -85 c42 -47 78
-87 81 -90 3 -3 41 -45 85 -95 44 -49 85 -94 91 -100 9 -8 102 -113 290 -325
56 -63 146 -164 188 -210 23 -25 75 -83 116 -130 41 -46 89 -100 107 -118 17
-19 78 -88 135 -153 124 -142 179 -178 247 -159 22 6 54 22 71 36 16 14 113
134 215 267 102 133 191 249 198 257 7 8 55 71 107 140 52 69 97 127 101 130
3 3 95 122 204 265 109 143 201 262 205 265 3 3 34 43 69 90 84 111 103 157
109 252 l5 78 489 -490 c270 -270 493 -490 497 -490 3 0 47 40 96 90 49 49 90
88 92 86 5 -5 -89 -213 -137 -301 -57 -106 -154 -268 -198 -330 -56 -79 -145
-198 -165 -220 -10 -11 -42 -48 -70 -82 -57 -69 -251 -262 -337 -336 -251
-218 -590 -425 -905 -555 -220 -90 -524 -177 -695 -197 -30 -4 -57 -8 -60 -10
-3 -2 -30 -6 -60 -9 -30 -3 -71 -8 -90 -10 -170 -22 -591 -22 -705 0 -11 2
-47 7 -80 10 -47 5 -350 64 -400 78 -5 1 -30 8 -55 15 -72 20 -244 79 -328
112 -338 134 -705 359 -944 578 l-47 43 23 32 c13 17 148 315 301 661 153 347
290 657 305 690 15 33 147 332 294 665 l267 605 91 -88 c50 -48 125 -114 167
-146z"/>
<path d="M1084 3845 c-48 -21 -102 -91 -123 -160 -54 -174 21 -360 164 -407
28 -9 100 -34 162 -57 112 -40 112 -40 119 -18 4 12 21 54 39 92 18 39 47 104
65 145 18 41 48 107 65 145 54 119 60 106 -62 149 -60 21 -117 42 -128 46 -76
32 -200 72 -232 75 -21 2 -52 -3 -69 -10z"/>
</g>
</svg>
