<?xml version="1.0" encoding="utf-8"?>
<!-- Generator: Adobe Illustrator 21.1.0, SVG Export Plug-In . SVG Version: 6.00 Build 0)  -->
<svg version="1.1" xmlns="http://www.w3.org/2000/svg" xmlns:xlink="http://www.w3.org/1999/xlink" x="0px" y="0px"
	 viewBox="0 0 500 500" style="enable-background:new 0 0 500 500;" xml:space="preserve">
<style type="text/css">
	.st0{fill:#08864D;}
	.st1{fill:none;stroke:#000000;stroke-width:13;stroke-miterlimit:10;}
</style>
<g id="Layer_2">
	<path class="st0" d="M78.2,265l21.5,7.7l16.2-36.7l-30.8-11c-7.7-2.8-15.5,4-17.4,15C65.8,251,70.5,262.2,78.2,265z M359,270.9
		l-70.5,91.4l-82.8-92.5c-1.6-1.7-3.4-3-5.3-3.7l-11-4l-16.2,36.7l17.4,6.2l89.9,100.4c2.6,2.9,5.7,4.3,8.8,4.3
		c3.5,0,6.9-1.8,9.6-5.3l79.4-103.1c5.9-7.6,6.3-20.6,1-29.1C374,263.9,364.9,263.2,359,270.9z M204.4,170.4l77.2,71.2
		c6.5,6,15.2,3.5,19.6-5.6l79.4-164.9c4.5-9.4,2.9-22.2-3.6-28.7c-6.5-6.5-15.5-4.1-20,5.2l-71.5,148.5l-77.6-71.6
		c-3.2-3-7.1-4-10.9-2.8c-3.7,1.2-7,4.5-9,9.1L69.5,398.8c-4.3,9.6-2.3,22.4,4.4,28.5c2.4,2.2,5,3.2,7.7,3.2c4.8,0,9.4-3.4,12.1-9.6
		L204.4,170.4z"/>
</g>
<g id="Layer_1">
	<path d="M391,218.4c13.4-21.1,21.3-46.2,21.3-73.1c0-75.3-61-136.3-136.1-136.3c-75.3,0-136.2,61-136.2,136.3s61,136.3,136.1,136.3
		c27.3,0,52.7-8.1,74-21.8l6.2-4.3l97.2,97.2l30.2-30.7l-97.1-97.2L391,218.4z M352.4,69.1c20.3,20.3,31.5,47.3,31.5,76.1
		s-11.2,55.8-31.5,76.1c-20.3,20.3-47.3,31.5-76.1,31.5s-55.8-11.2-76.1-31.5s-31.5-47.3-31.5-76.1s11.2-55.8,31.5-76.1
		s47.3-31.5,76.1-31.5C305,37.5,332.1,48.7,352.4,69.1z"/>
</g>
<g id="Layer_3">
	<circle class="st1" cx="248.2" cy="251.4" r="242.5"/>
</g>
</svg>
